HIERARCHY
ROOT Hips
{
 OFFSET 0.000000 0.000000 0.000000
 CHANNELS 6 Xposition Yposition Zposition Yrotation Xrotation Zrotation
 JOINT Chest
 {
  OFFSET 0.000000 9.585900 0.002600
  CHANNELS 3 Yrotation Xrotation Zrotation
  JOINT Chest2
  {
   OFFSET 0.000000 9.601200 -0.005300
   CHANNELS 3 Yrotation Xrotation Zrotation
   JOINT Chest3
   {
    OFFSET 0.000000 9.561800 0.000000
    CHANNELS 3 Yrotation Xrotation Zrotation
    JOINT Chest4
    {
     OFFSET 0.000000 9.552100 0.000000
     CHANNELS 3 Yrotation Xrotation Zrotation
     JOINT Neck
     {
      OFFSET 0.000000 14.453000 0.000000
      CHANNELS 3 Yrotation Xrotation Zrotation
      JOINT Head
      {
       OFFSET 0.000000 8.936500 -0.011300
       CHANNELS 3 Yrotation Xrotation Zrotation
       End Site
       {
        OFFSET 0.000000 17.073600 -0.006000
       }
      }
     }
     JOINT RightCollar
     {
      OFFSET -2.921100 9.558500 0.000000
      CHANNELS 3 Yrotation Xrotation Zrotation
      JOINT RightShoulder
      {
       OFFSET -13.519700 0.000000 0.000000
       CHANNELS 3 Yrotation Xrotation Zrotation
       JOINT RightElbow
       {
        OFFSET 0.000000 -29.696600 0.000000
        CHANNELS 3 Yrotation Xrotation Zrotation
        JOINT RightWrist
        {
         OFFSET 0.000000 -24.004700 0.000000
         CHANNELS 3 Yrotation Xrotation Zrotation
         End Site
         {
          OFFSET 0.000000 -17.728500 0.000000
         }
        }
       }
      }
     }
     JOINT LeftCollar
     {
      OFFSET 2.921100 9.558500 0.000000
      CHANNELS 3 Yrotation Xrotation Zrotation
      JOINT LeftShoulder
      {
       OFFSET 13.519700 0.000000 0.000000
       CHANNELS 3 Yrotation Xrotation Zrotation
       JOINT LeftElbow
       {
        OFFSET 0.000000 -29.696600 0.000000
        CHANNELS 3 Yrotation Xrotation Zrotation
        JOINT LeftWrist
        {
         OFFSET 0.000000 -24.004700 0.000000
         CHANNELS 3 Yrotation Xrotation Zrotation
         End Site
         {
          OFFSET 0.000000 -17.728500 0.000000
         }
        }
       }
      }
     }
    }
   }
  }
 }
 JOINT RightHip
 {
  OFFSET -7.771700 -0.012900 -0.001300
  CHANNELS 3 Yrotation Xrotation Zrotation
  JOINT RightKnee
  {
   OFFSET 0.000000 -40.869800 0.001200
   CHANNELS 3 Yrotation Xrotation Zrotation
   JOINT RightAnkle
   {
    OFFSET 0.000000 -39.717900 0.002100
    CHANNELS 3 Yrotation Xrotation Zrotation
    JOINT RightToe
    {
     OFFSET 0.000000 -4.965400 11.033500
     CHANNELS 3 Yrotation Xrotation Zrotation
     End Site
     {
      OFFSET 0.000000 -1.423100 5.872300
     }
    }
   }
  }
 }
 JOINT LeftHip
 {
  OFFSET 7.771700 -0.012900 -0.001300
  CHANNELS 3 Yrotation Xrotation Zrotation
  JOINT LeftKnee
  {
   OFFSET 0.000000 -40.869800 0.001200
   CHANNELS 3 Yrotation Xrotation Zrotation
   JOINT LeftAnkle
   {
    OFFSET 0.000000 -39.717900 0.002100
    CHANNELS 3 Yrotation Xrotation Zrotation
    JOINT LeftToe
    {
     OFFSET 0.000000 -4.965400 11.033500
     CHANNELS 3 Yrotation Xrotation Zrotation
     End Site
     {
      OFFSET 0.000000 -1.423100 5.872300
     }
    }
   }
  }
 }
}
MOTION
Frames: 5
Frame Time: 0.008333
0.000000 85.388000 0.000000 0.000000 -5.767877 0.000000 0.000000 11.653817 0.000000 0.000000 -5.885947 0.000000 0.000000 -0.000000 0.000000 0.000000 -0.000000 0.000000 0.000000 12.528835 0.000000 0.000000 0.711642 0.000000 0.000000 -0.000000 0.000000 0.000000 0.000000 -90.000000 0.000000 -2.309062 0.000000 0.000000 2.309062 0.000000 0.000000 -0.000000 0.000000 0.000000 -0.000000 90.000000 0.000000 -2.309062 0.000000 0.000000 2.309062 0.000000 0.000000 8.520406 0.000000 0.000000 1.905762 0.000000 -0.000000 -4.658285 0.000000 0.000000 -0.000000 0.000000 0.000000 8.520406 0.000000 0.000000 1.905762 0.000000 -0.000000 -4.658285 0.000000 0.000000 -0.000000 0.000000
-19.008705 44.000041 25.342300 177.054621 -29.947633 -2.096213 0.357826 24.480906 0.025407 0.121365 3.758412 0.082508 0.157562 6.005465 0.143919 0.572183 20.273724 0.582371 2.301007 15.148905 -11.494266 5.370282 -9.214399 -13.541605 14.063694 2.712122 -2.130983 -21.337968 -13.836898 -2.138314 -64.713719 -48.713959 45.178211 -17.092561 -2.387914 -25.087801 -16.522303 0.418956 -7.545511 24.893137 -12.816903 1.978432 75.130444 -46.228225 -70.040476 24.926171 -2.916430 18.553493 -2.472417 -60.423456 9.391475 -156.637212 67.581596 -154.350043 -10.806225 -25.237148 8.701988 0.291528 -0.474093 0.218648 3.061346 -44.408227 0.643616 -179.838032 56.869586 179.165028 -3.451169 -42.830079 4.607380 -0.003004 -0.013489 0.095103
-19.005170 43.991291 25.342761 177.049449 -29.946260 -2.101549 0.342535 24.465889 0.027842 0.080303 3.727854 0.090037 0.143258 5.992709 0.145206 0.566010 20.285554 0.572040 2.273260 15.084908 -11.471476 5.319287 -9.302067 -13.495410 14.035298 2.699896 -2.159545 -21.331334 -13.474898 -2.070539 -64.607961 -49.501082 45.480673 -16.676387 -1.957776 -24.773810 -16.479057 0.360018 -7.525852 24.762238 -12.610800 2.085348 75.096529 -46.837130 -70.500591 24.655283 -2.663856 18.276241 -2.547262 -60.442840 9.516540 -156.378907 67.526120 -154.166857 -10.749979 -25.199564 8.697364 0.281575 -0.522103 0.247412 3.053697 -44.420646 0.685081 -179.808437 56.858923 179.178265 -3.480931 -42.825316 4.628967 0.002880 -0.003283 0.084136
-18.998217 43.982641 25.342300 177.057373 -29.954080 -2.132098 0.339679 24.469465 0.054638 0.054246 3.714976 0.096038 0.136323 5.987722 0.145551 0.542057 20.278868 0.570296 2.233591 15.007310 -11.445955 5.268669 -9.393028 -13.455067 14.000149 2.675559 -2.186070 -21.358159 -13.137215 -2.000511 -64.494030 -50.245753 45.801107 -16.260415 -1.597750 -24.443136 -16.448997 0.290439 -7.494868 24.633789 -12.425012 2.186040 75.083227 -47.429399 -70.972045 24.427693 -2.450086 17.951967 -2.644748 -60.450644 9.649863 -156.264805 67.488586 -154.078205 -10.771702 -25.176641 8.667377 0.312688 -0.559843 0.286922 2.994055 -44.427982 0.779474 -179.734383 56.842993 179.217878 -3.510688 -42.817483 4.641087 0.007227 0.001506 0.091357
-18.993965 43.973221 25.342752 177.056143 -29.956698 -2.141201 0.314265 24.458517 0.058583 0.065086 3.720927 0.094252 0.122416 5.981212 0.149185 0.538416 20.280472 0.564414 2.169483 14.918696 -11.407020 5.216836 -9.482842 -13.420318 13.984470 2.663333 -2.200574 -21.457696 -12.845310 -1.916792 -64.385600 -50.948061 46.150333 -15.862387 -1.308089 -24.108488 -16.447501 0.214459 -7.444554 24.511211 -12.261924 2.279807 75.098167 -47.998521 -71.464890 24.238675 -2.248742 17.636515 -2.698053 -60.464848 9.739082 -156.136284 67.446984 -153.988277 -10.757860 -25.170378 8.674824 0.313726 -0.593860 0.276439 2.965646 -44.436269 0.819243 -179.697554 56.833567 179.236746 -3.518908 -42.818633 4.644166 0.012372 0.014175 0.082243
